inDegrees=no
num_controls=7
num_derivatives=13
num_iterations=198
num_multipliers=7
num_parameters=0
num_slacks=7
num_states=26
objective=5.460477
objective_accelerations=0.372321
objective_balance=0.045873
objective_effort=0.364905
objective_height=4.557484
objective_ligament=0.119895
solver_duration=2032.743388
status=Solve_Succeeded
success=true
DataType=double
version=3
OpenSimVersion=4.4-2022-07-23-0e9fedc
endheader
time	/jointset/ground_pelvis/pelvis_tilt/value	/jointset/ground_pelvis/pelvis_tx/value	/jointset/ground_pelvis/pelvis_ty/value	/jointset/hip_l/hip_flexion_l/value	/jointset/hip_l/hip_adduction_l/value	/jointset/hip_l/hip_rotation_l/value	/jointset/back/lumbar_extension/value	/jointset/patellofemoral_l/patellar_flexion_l/value	/jointset/knee_l/knee_flexion_l/value	/jointset/knee_l/knee_adduction_l/value	/jointset/knee_l/knee_rotation_l/value	/jointset/ankle_l/ankle_angle_l/value	/jointset/subtalar_l/subtalar_angle_l/value	/jointset/ground_pelvis/pelvis_tilt/speed	/jointset/ground_pelvis/pelvis_tx/speed	/jointset/ground_pelvis/pelvis_ty/speed	/jointset/hip_l/hip_flexion_l/speed	/jointset/hip_l/hip_adduction_l/speed	/jointset/hip_l/hip_rotation_l/speed	/jointset/back/lumbar_extension/speed	/jointset/patellofemoral_l/patellar_flexion_l/speed	/jointset/knee_l/knee_flexion_l/speed	/jointset/knee_l/knee_adduction_l/speed	/jointset/knee_l/knee_rotation_l/speed	/jointset/ankle_l/ankle_angle_l/speed	/jointset/subtalar_l/subtalar_angle_l/speed	/forceset/tau_hip_flexion_l	/forceset/tau_hip_adduction_l	/forceset/tau_hip_rotation_l	/forceset/tau_knee_flexion_l	/forceset/tau_ankle_angle_l	/forceset/tau_subtalar_angle_l	/forceset/tau_lumbar_extension	lambda_cid13_p0	lambda_cid13_p1	lambda_cid13_p2	lambda_cid13_p3	lambda_cid13_p4	lambda_cid13_p5	lambda_cid14_p0	/jointset/ground_pelvis/pelvis_tilt/accel	/jointset/ground_pelvis/pelvis_tx/accel	/jointset/ground_pelvis/pelvis_ty/accel	/jointset/hip_l/hip_flexion_l/accel	/jointset/hip_l/hip_adduction_l/accel	/jointset/hip_l/hip_rotation_l/accel	/jointset/back/lumbar_extension/accel	/jointset/patellofemoral_l/patellar_flexion_l/accel	/jointset/knee_l/knee_flexion_l/accel	/jointset/knee_l/knee_adduction_l/accel	/jointset/knee_l/knee_rotation_l/accel	/jointset/ankle_l/ankle_angle_l/accel	/jointset/subtalar_l/subtalar_angle_l/accel	gamma_cid13_p0	gamma_cid13_p1	gamma_cid13_p2	gamma_cid13_p3	gamma_cid13_p4	gamma_cid13_p5	gamma_cid14_p0
1.5	0.1136249432312323	0.04306183156084702	0.8869804525369244	0.4140948085531043	-0.3190165541783114	-0.1708348453691196	-0.7660156309608642	0.6800804443518742	0.6800804443519934	-0.1077817752142037	-0.1745325531253251	0.2066478051613177	0.04981248743920551	0.04022818126183599	0.1344223663155015	0.280060466165836	-1.299675346806044	0.1107309893812328	-0.5557750696028947	0.8497010875490011	-1.748396770659987	-1.748396770660032	-0.1234142383112544	7.208752042166361e-06	-0.5943264834678803	-0.09794149337611387	-0.1171572260945507	0.02797321380384921	-0.005634146894520009	-0.2245916700362924	0.006484943846211693	0.03606611792316312	0.2288299506090461	-40.20057463136649	-12.07948631361636	5.41770638743214	-0.02256958494207129	-674.9481993344093	-78.61709619986709	-18.65707134034134	-0.2750327633360479	0.3157689562469056	-0.4939526790521059	-0.1806396234943205	0.3082710851197996	-0.2482863180769377	1.429085323724874	-0.7408779843224167	-0.7408779843224202	-0.3220935011258331	0.03188090790566197	-0.2772742249043973	0.3026337919455929	2.938530419967605e-08	1.294908852562088e-06	-8.884246647529117e-08	1.756007172963298e-07	7.351614413838946e-08	6.269255640856151e-07	1.050189467327982e-07
1.51	0.1140134666504179	0.04442169690241236	0.889755817937065	0.4010904981988615	-0.3178942152090495	-0.1764059633329766	-0.757448330855792	0.6625617136223209	0.6625617136223075	-0.1090318548526839	-0.174532549911951	0.2006914097849425	0.04884794500182319	0.03747982693344315	0.1375339622538763	0.2749609090564541	-1.301027589662336	0.1137277044135818	-0.5583840244892936	0.8636357212721477	-1.75511333808795	-1.755113338087909	-0.1266072532928001	-3.300680875467524e-06	-0.5968640999228423	-0.09495287359488536	-0.1122546380274598	0.02658110215647252	-0.005584522935602684	-0.2214503572870839	0.009319898881652541	0.03535273733070023	0.223563847814454	-39.174829981096	-11.9611834050249	5.412458509508337	-0.2857779098264377	-672.1408745615843	-78.564792656368	-19.21852071327421	-0.274249920950295	0.3063839969609918	-0.5257068021482668	-0.08866235689819518	0.2938537493854391	-0.2574353975127511	1.357170567773803	-0.6016600729334961	-0.6016600729206223	-0.3185295614080028	-0.01700923289313508	-0.2286943051601523	0.2988783175457398	9.521282729343139e-09	1.333925434391576e-06	-1.561194297674482e-08	1.918552197793762e-07	4.52759511913476e-08	5.95978540761197e-07	1.001393986194447e-07
1.52	0.1143746038956456	0.04581218402022738	0.8924786378510589	0.3880774362680049	-0.3167422126820578	-0.1820012179104009	-0.7487453807792579	0.6449828944283178	0.6449828944281532	-0.1103139894539396	-0.1745325502656761	0.1947123004541457	0.0479136692115192	0.03475094647065358	0.140546721565437	0.2695513689364206	-1.301425662126696	0.1166637009296417	-0.5606023923193428	0.8768310818418543	-1.760414463551922	-1.760414463551795	-0.1298252308639019	6.495326099831898e-06	-0.5988692743525249	-0.09188816396028225	-0.1073520499604049	0.02518899050914438	-0.005534898977005822	-0.2183090445378667	0.01215485391711046	0.03463935673830748	0.2182977450198169	-38.15340121895117	-11.84267341433535	5.407804614178521	-0.5572965949820722	-669.4141253858094	-78.53376861149891	-19.75931116497491	-0.2711379902153427	0.296001630884122	-0.5559492811824233	0.01019445489233741	0.2961273818620387	-0.1701689068070137	1.281230693036995	-0.4577895915241407	-0.4577895915241353	-0.3270860190370137	0.03594199588422749	-0.1707858198484631	0.317851762620542	-6.338879242595176e-09	1.348369469834701e-06	4.181909234543753e-08	2.01132528132611e-07	2.578521544809457e-08	5.616331982033829e-07	9.50383209444879e-08
1.53	0.1147085070403473	0.04723225961346934	0.8951458579257321	0.3750653092873619	-0.3155610981326754	-0.1876168821161483	-0.7399142229139793	0.6273582580644675	0.6273582580643273	-0.1116281705333299	-0.1745324368609331	0.1887158427173847	0.04701051059636949	0.03203264677959606	0.143447130152355	0.2638461581481902	-1.300832598434019	0.1195494973193313	-0.5624758038398079	0.8892675488366301	-1.764267726614102	-1.764267726614039	-0.1330026257879858	1.123747721975358e-05	-0.6003317096229335	-0.08872940895615747	-0.1023979677375245	0.02379241271668214	-0.00554082512385463	-0.2152071043051764	0.01497075773666312	0.03387141662499364	0.212999904355046	-37.14931926702491	-11.69382491471074	5.394194675778712	-0.7798032476371259	-666.805978693873	-78.46596355655768	-20.27613348989765	-0.2717458516006354	0.2839112320253826	-0.5847781285019407	0.108913665035537	0.2831810040417144	-0.1876551675653548	1.204913346266369	-0.3123496418179874	-0.3123496418276978	-0.3115984813866894	-0.01797327334462123	-0.1203534693890221	0.3167884027951157	-1.794494049748929e-08	1.336705174742317e-06	8.246317148023332e-08	2.02996567722921e-07	1.55907779838671e-08	5.236771414600854e-07	8.970186811032749e-08
1.54	0.1150153132095307	0.04868070944446681	0.8977546316623515	0.3620641232113496	-0.314351450572095	-0.193249626015683	-0.7309626886500412	0.6097024380743343	0.6097024380742304	-0.1129738320124114	-0.1745324187542981	0.1827074844101674	0.04613931973795806	0.02933155136654493	0.1462215691165401	0.2578621013256469	-1.299237481198126	0.1223703031698074	-0.5640183310762401	0.9009063615741351	-1.766651188806408	-1.76665118880641	-0.1361213108037801	-1.256429447792782e-05	-0.6012493884434202	-0.08549461261256633	-0.09744388551474668	0.02239583492418041	-0.005546751270586947	-0.2121051640725357	0.01778666155619413	0.03310347651162173	0.2077020636902115	-36.15001775750488	-11.54407665335608	5.380369912423859	-1.008271340212366	-664.2856462211166	-78.41584176354749	-20.76568835781599	-0.2676971346140246	0.2708077063376059	-0.6117184880449765	0.210605163535598	0.2831292740193462	-0.1039920500004139	1.121699841582957	-0.1638294175494384	-0.1638294175494374	-0.3153440373790835	0.0302332113207023	-0.06183452986407072	0.3330600305138455	-2.081353819268941e-08	1.308457510863076e-06	7.887442669011406e-08	1.989207850158096e-07	1.392186829178119e-08	5.028977415228279e-07	8.842772698343903e-08
1.55	0.1152951771461048	0.05015623852577245	0.900302230186383	0.3490839366290251	-0.313113960255834	-0.1988958295784026	-0.7218988997126369	0.5920301510117149	0.592030151011631	-0.1143505873237729	-0.1745325485058382	0.1766926663680626	0.04530080396361204	0.02664418337333448	0.1488592482225343	0.2516172828302254	-1.296628832677154	0.1251150067625426	-0.5651592790675977	0.9117013290797708	-1.767556806340056	-1.767556806340077	-0.1392211201021508	-1.231546923496283e-05	-0.6016230228962831	-0.08219781260170091	-0.09228703898975285	0.02067894572668021	-0.005610472145210269	-0.209298663244873	0.0208566807436678	0.03242904835479626	0.2022732952618881	-35.07434235709789	-11.45001407005776	5.377365419806654	-1.264899569203556	-661.8986013438816	-78.53280106925743	-21.22468896203347	-0.2688268035992846	0.2565345615310382	-0.6369063066657249	0.3116290609085963	0.2680838848823415	-0.1096000946165036	1.035880681159532	-0.01653406025010495	-0.01653406025272761	-0.3058104135963412	-0.01491417771408352	-0.01141727414929296	0.3294059900930363	-1.361505830824263e-08	1.26110292207724e-06	2.432177607346507e-08	1.880012940094958e-07	2.207584929368395e-08	5.019088374707891e-07	9.183407543232017e-08
1.56	0.115548253368366	0.05165740170789849	0.9027861719701855	0.3361349634048084	-0.3118494343070485	-0.2045515334052201	-0.7127316640049562	0.5743562865459788	0.574356286545882	-0.1157580429356366	-0.1745326427482417	0.1706768541071983	0.04449553939011883	0.02397400850311812	0.1513483892806193	0.2451307532798576	-1.292994809574961	0.1277774296745507	-0.5659183838954734	0.9215957156296205	-1.766966669432805	-1.766966669432842	-0.1422613709017317	-5.462477600864167e-06	-0.6014482321952211	-0.07884437244202906	-0.08713019246484012	0.0189620565291654	-0.005674193020079605	-0.2064921624172292	0.02392669993113171	0.03175462019795351	0.1968445268335105	-34.00371978802347	-11.35359972126993	5.372310798506696	-1.52712399060104	-659.6038576778049	-78.6675350703773	-21.64992289216904	-0.2642585100151464	0.2411000967558242	-0.6600606990342223	0.4156800797795653	0.2666731378739571	-0.02762341730400379	0.9415836504258838	0.1353214706306174	0.1353214706306281	-0.30343233762113	0.0315540445989648	0.04785050092092816	0.3443880602751709	-1.457747412903031e-08	1.221233892890309e-06	1.170574104040368e-08	1.813365918528266e-07	2.218121154820423e-08	4.812476150945161e-07	9.069596871012171e-08
